<svg width="12.000000" height="12.000000" viewBox="0 0 12 12" fill="none" xmlns="http://www.w3.org/2000/svg" xmlns:xlink="http://www.w3.org/1999/xlink">
	<desc>
			Created with Pixso.
	</desc>
	<defs>
		<clipPath id="clip32_126">
			<rect id="svg" width="12.000000" height="12.000000" fill="white" fill-opacity="0"/>
		</clipPath>
	</defs>
	<g clip-path="url(#clip32_126)">
		<path id="path" d="M3 1L8.5 1L8.5 7.5L5 11L4.37 10.37C4.31 10.31 4.26 10.23 4.23 10.13C4.19 10.03 4.17 9.94 4.17 9.85L4.17 9.67L4.72 7.5L1.5 7.5C1.23 7.5 1 7.39 0.8 7.19C0.59 7 0.5 6.76 0.5 6.5L0.5 5.5C0.5 5.44 0.5 5.37 0.52 5.31C0.54 5.24 0.55 5.18 0.57 5.12L2.07 1.6C2.15 1.43 2.27 1.29 2.44 1.17C2.62 1.05 2.8 1 3 1ZM7.5 2L3 2L1.5 5.5L1.5 6.5L6 6.5L5.32 9.25L7.5 7.07L7.5 2ZM7.5 7.07L7.5 2L7.5 7.07ZM8.5 7.5L8.5 6.5L10 6.5L10 2L8.5 2L8.5 1L11 1L11 7.5L8.5 7.5Z" fill="#5F6368" fill-opacity="1.000000" fill-rule="nonzero"/>
	</g>
</svg>
