<svg width="13.000000" height="13.000000" viewBox="0 0 13 13" fill="none" xmlns="http://www.w3.org/2000/svg" xmlns:xlink="http://www.w3.org/1999/xlink">
	<desc>
			Created with Pixso.
	</desc>
	<defs>
		<clipPath id="clip14_189">
			<rect id="svg" width="13.000000" height="13.000000" fill="white" fill-opacity="0"/>
		</clipPath>
	</defs>
	<g clip-path="url(#clip14_189)">
		<path id="path" d="M5.95 9.2L7.04 9.2L7.04 5.95L5.95 5.95L5.95 9.2ZM6.5 4.87C6.65 4.87 6.78 4.82 6.88 4.71C6.98 4.61 7.04 4.48 7.04 4.33C7.04 4.17 6.98 4.05 6.88 3.94C6.78 3.84 6.65 3.79 6.5 3.79C6.34 3.79 6.21 3.84 6.11 3.94C6.01 4.05 5.95 4.17 5.95 4.33C5.95 4.48 6.01 4.61 6.11 4.71C6.21 4.82 6.34 4.87 6.5 4.87ZM6.5 11.91C5.75 11.91 5.04 11.77 4.38 11.49C3.72 11.2 3.15 10.81 2.66 10.33C2.18 9.84 1.79 9.27 1.5 8.61C1.22 7.95 1.08 7.24 1.08 6.49C1.08 5.75 1.22 5.04 1.5 4.38C1.79 3.72 2.18 3.15 2.66 2.66C3.15 2.18 3.72 1.79 4.38 1.5C5.04 1.22 5.75 1.08 6.5 1.08C7.24 1.08 7.95 1.22 8.61 1.5C9.27 1.79 9.84 2.18 10.33 2.66C10.81 3.15 11.2 3.72 11.49 4.38C11.77 5.04 11.91 5.75 11.91 6.49C11.91 7.24 11.77 7.95 11.49 8.61C11.2 9.27 10.81 9.84 10.33 10.33C9.84 10.81 9.27 11.2 8.61 11.49C7.95 11.77 7.24 11.91 6.5 11.91ZM6.5 10.83C7.7 10.83 8.73 10.41 9.57 9.57C10.41 8.73 10.83 7.7 10.83 6.49C10.83 5.29 10.41 4.26 9.57 3.42C8.73 2.58 7.7 2.16 6.5 2.16C5.29 2.16 4.26 2.58 3.42 3.42C2.58 4.26 2.16 5.29 2.16 6.49C2.16 7.7 2.58 8.73 3.42 9.57C4.26 10.41 5.29 10.83 6.5 10.83Z" fill="#5F6368" fill-opacity="1.000000" fill-rule="nonzero"/>
	</g>
</svg>
